<svg xmlns="http://www.w3.org/2000/svg" viewBox="0 0 512 512">
<defs><linearGradient id="bg" x1="0" y1="0" x2="1" y2="1"><stop offset="0%" stop-color="#C0272D"/><stop offset="100%" stop-color="#8B1A1E"/></linearGradient></defs>
<rect width="512" height="512" rx="115" fill="url(#bg)"/>
<rect x="120" y="100" width="272" height="340" rx="18" fill="#fff" opacity=".95"/>
<rect x="120" y="100" width="272" height="50" rx="18" fill="#E8E8E8"/>
<rect x="120" y="130" width="272" height="20" fill="#E8E8E8"/>
<rect x="216" y="82" width="80" height="36" rx="10" fill="#C0272D"/>
<rect x="236" y="90" width="40" height="20" rx="6" fill="#fff" opacity=".3"/>
<rect x="155" y="190" width="18" height="18" rx="4" fill="#C0272D"/>
<line x1="158" y1="199" x2="163" y2="204" stroke="#fff" stroke-width="2.5" stroke-linecap="round"/>
<line x1="163" y1="204" x2="171" y2="194" stroke="#fff" stroke-width="2.5" stroke-linecap="round"/>
<rect x="185" y="192" width="145" height="10" rx="5" fill="#E0E0E0"/>
<rect x="155" y="230" width="18" height="18" rx="4" fill="#C0272D"/>
<line x1="158" y1="239" x2="163" y2="244" stroke="#fff" stroke-width="2.5" stroke-linecap="round"/>
<line x1="163" y1="244" x2="171" y2="234" stroke="#fff" stroke-width="2.5" stroke-linecap="round"/>
<rect x="185" y="232" width="120" height="10" rx="5" fill="#E0E0E0"/>
<rect x="155" y="270" width="18" height="18" rx="4" fill="#E0E0E0"/>
<rect x="185" y="272" width="145" height="10" rx="5" fill="#E0E0E0"/>
<rect x="155" y="310" width="18" height="18" rx="4" fill="#E0E0E0"/>
<rect x="185" y="312" width="100" height="10" rx="5" fill="#E0E0E0"/>
<path d="M330 290 Q356 280 382 290 L382 330 Q356 350 330 330 Z" fill="#C0272D"/>
<text x="356" y="322" font-family="Arial" font-size="22" font-weight="900" fill="#fff" text-anchor="middle">SC</text>
</svg>